PathFileType	4	(X/Y/Z)	T1_P1_Vision_Movement_1_0-686.trc
DataRate	CameraRate	NumFrames	NumMarkers	Units	OrigDataRate	OrigDataStartFrame	OrigNumFrames
60	60	4	27	m	60	343	686
Frame#	Time	RHip			RKnee			RAnkle			RBigToe			RSmallToe			RHeel			LHip			LKnee			LAnkle			LBigToe			LSmallToe			LHeel			Neck			Head			Nose			RShoulder			RElbow			RWrist			RThumb			RIndex			RPinky			LShoulder			LElbow			LWrist			LThumb			LIndex			LPinky		
		X1	Y1	Z1	X2	Y2	Z2	X3	Y3	Z3	X4	Y4	Z4	X5	Y5	Z5	X6	Y6	Z6	X7	Y7	Z7	X8	Y8	Z8	X9	Y9	Z9	X10	Y10	Z10	X11	Y11	Z11	X12	Y12	Z12	X13	Y13	Z13	X14	Y14	Z14	X15	Y15	Z15	X16	Y16	Z16	X17	Y17	Z17	X18	Y18	Z18	X19	Y19	Z19	X20	Y20	Z20	X21	Y21	Z21	X22	Y22	Z22	X23	Y23	Z23	X24	Y24	Z24	X25	Y25	Z25	X26	Y26	Z26	X27	Y27	Z27
344	5.733333333333333	-86.94942972211385	3898.8964792761085	-722.4953081391371	268.1465160000087	4013.372468591867	-696.4283006199913	629.6169789712698	4230.584152684313	-695.1340194526985	692.5126577869443	4095.439613997453	-639.0927197930444	710.5827980892169	4160.590599811543	-738.0000203243179	661.3037716471574	4286.721161446331	-696.3029501245867	-107.59218639072981	3987.058088566387	-512.9934667019843	218.12511751401226	4035.176405956645	-495.5688039529038	572.330865199819	4291.680880557111	-533.6735265610803	655.0552565304837	4148.799334068433	-478.90235559770747	642.5223366361433	4261.9101061106385	-438.9141683719441	627.8853166982865	4374.2513032411425	-568.8463371513777	-702.8462931947068	3752.971923467273	-598.7223521889845	-944.2151854078437	3663.826356546681	-567.7629836655451	-797.3411188145564	3672.237606089872	-547.2629820793039	-596.2388266631084	3713.7625761258078	-722.2891688258879	-430.79797358590986	3567.3374270420077	-783.8999135276542	-627.7915664586179	3392.2291976067086	-665.0348733665371	-689.8735554972513	3418.340193596972	-625.8946844827339	-718.4327051799975	3405.1009670320113	-621.7194384648296	-663.1391977375257	3392.9410719955745	-652.3146659195233	-632.8512946096135	3880.2600178301036	-491.06197658012894	-385.77036610881186	4077.749508158098	-473.762956686419	-122.34923683914259	3983.3750513033633	-365.0673901157562	-2.2902904942050646	3950.311243928658	-350.00799175590987	24.9925182459194	3989.7966629427538	-350.81871296176917	19.62882632298053	4106.611602805089	-372.5614914799833
345	5.75	-86.78014700070823	3898.98560823443	-722.5555110333994	268.1188723267511	4013.3577696549	-696.3101320402993	617.034298873483	4223.632723534878	-693.5088700450656	692.4611697550905	4095.654865596672	-639.2477657707411	702.9703645564698	4157.0626746970065	-738.9372954648821	661.2535021918411	4286.506112814881	-696.6139260785724	-106.90649393030084	3958.1980402157005	-506.2320671622726	220.60374756100092	4056.1302182703616	-510.3322568194942	576.3368036361347	4323.077676431587	-540.2438015692559	659.7813571750997	4179.8514059442605	-485.24764617643103	643.0539077542213	4262.341252259192	-439.23997451526634	627.7461015590944	4373.995553028438	-568.5427635770523	-702.806635253438	3753.13436021501	-598.8328182476296	-949.096206825709	3663.641284465466	-574.1868152275249	-802.423518564003	3670.828065048635	-547.5157087638497	-596.2493207003248	3713.72376816241	-722.2437763384979	-432.9691057584776	3539.0205079294524	-774.4380801050696	-623.7998803950572	3369.4477652233654	-658.2645024556673	-687.0425054664402	3432.8626222995226	-638.5458475466493	-711.0618171921222	3409.155145474616	-623.7017661881891	-655.2756636386731	3370.8560468803767	-645.4700903285512	-632.8683069344421	3880.3521708716203	-491.1129493274379	-385.78858082159775	4077.7961763309977	-473.7152107214537	-122.30961271444103	3983.38745371598	-365.10584614730743	-2.332786082333001	3950.2233889227755	-349.9795900058183	25.065122157789464	3989.733219576796	-350.8255536115088	19.698797338164418	4106.767388869326	-372.75239940323945
346	5.766666666666667	-92.26394660959294	3895.4052420054513	-720.7929093326491	262.3986303486302	4010.0634317674126	-694.7934316813195	616.7367763696246	4223.5619269525605	-693.5580386831555	692.7206652482943	4095.9285437431313	-639.1163723630107	697.1811617029219	4153.17911611026	-736.6364480263962	648.6109238754136	4278.750475458955	-694.9725957103232	-113.0223540805591	3983.2495359705977	-511.4498448337607	220.60113427740876	4056.6797747691826	-510.5407306145843	572.1391641327998	4291.405437357921	-533.5673472283506	660.403129277038	4179.676998317819	-490.67649429657286	642.7962371599192	4262.1810251905135	-439.1213149747518	627.268695513018	4373.318885670993	-568.3184782538098	-702.7921335657164	3753.404803201086	-599.1086186809187	-949.0751742511449	3663.2601231448666	-568.3684914373947	-794.9427283125971	3656.253082859714	-534.4160502432857	-596.353762623139	3713.6083581578855	-722.3135596325728	-435.92192222287713	3564.1891849689146	-782.4901143353903	-623.424809132373	3368.2653847369893	-663.59769791231	-691.1942905005441	3432.3731040642047	-639.3467100380819	-721.144257009344	3419.1785666315436	-635.0673054240971	-657.0416294423557	3383.951300328105	-663.302934349296	-632.9170984054367	3880.4525337609402	-491.22587989161934	-385.7919756230423	4077.491158880631	-473.63338741384626	-122.32712657521881	3983.400718172599	-365.16166236326086	-7.487194823837903	3946.2180641323257	-348.2566680381149	24.957630600050976	3989.5091283071083	-350.739687358764	19.731222764613694	4106.5670936703655	-372.8729521136184
347	5.783333333333333	-98.11335453826032	3893.152366454494	-721.2914015457308	262.4233051004169	4009.8443702319482	-694.5271485003076	621.5964773247796	4257.225107171848	-702.4469121179143	692.6307048348124	4096.027899778078	-639.0567806125036	703.0413983105756	4156.932061149723	-738.7405280503781	655.3226768857307	4282.612178546834	-696.8887006194036	-113.05840431054017	3983.187137414414	-511.4097478202209	222.2452620878394	4087.1601627505456	-517.3331819771929	577.0244596839996	4324.175396109866	-540.9532994002386	659.7555857735712	4179.959907973417	-485.04989707664197	642.8840326836878	4262.51515828032	-439.0553833131622	634.2795534355419	4379.196336185443	-571.5695509992004	-702.763054421911	3753.488330531807	-599.1195416265424	-944.2037383872167	3664.073199880287	-568.0234253240671	-795.0552122752778	3655.6194519707233	-528.2754057560874	-596.2441858092409	3714.030571209103	-722.4727597803452	-442.1635755703793	3579.85010127995	-797.868801921239	-619.4109273566016	3344.552100857569	-656.314167559249	-701.1267209393792	3430.330267969127	-645.4383381607041	-725.4363631942745	3405.0558367286785	-629.9191158676032	-656.5444564887026	3357.4981758893573	-655.7240701522555	-632.9011951613289	3880.678853268694	-491.24713609325437	-385.8319739687132	4077.8245680310774	-473.67810367398164	-122.31117447075741	3983.3333886944815	-365.0672913871142	-2.455623183683383	3949.9511699829936	-349.76367044807694	25.023883776902284	3989.699955596438	-350.721309107144	19.787463340496238	4106.969434920513	-372.61911460472277
